<svg xmlns="http://www.w3.org/2000/svg" viewBox="0 0 740 144" fill="none">
  <rect width="740" height="144" rx="8" fill="#0d1117"/>
    <rect x="30" y="30" width="680" height="4" rx="1" fill="#e6edf3"/>
  <rect x="40" y="44" width="8" height="8" rx="1.5" fill="#e6edf3"/>
  <rect x="50" y="44" width="8" height="8" rx="1.5" fill="#e6edf3"/>
  <rect x="60" y="44" width="8" height="8" rx="1.5" fill="#e6edf3"/>
  <rect x="70" y="44" width="8" height="8" rx="1.5" fill="#e6edf3"/>
  <rect x="80" y="44" width="8" height="8" rx="1.5" fill="#e6edf3"/>
  <rect x="90" y="44" width="8" height="8" rx="1.5" fill="#e6edf3"/>
  <rect x="140" y="44" width="8" height="8" rx="1.5" fill="#e6edf3"/>
  <rect x="150" y="44" width="8" height="8" rx="1.5" fill="#e6edf3"/>
  <rect x="160" y="44" width="8" height="8" rx="1.5" fill="#e6edf3"/>
  <rect x="170" y="44" width="8" height="8" rx="1.5" fill="#e6edf3"/>
  <rect x="180" y="44" width="8" height="8" rx="1.5" fill="#e6edf3"/>
  <rect x="190" y="44" width="8" height="8" rx="1.5" fill="#e6edf3"/>
  <rect x="230" y="44" width="8" height="8" rx="1.5" fill="#e6edf3"/>
  <rect x="240" y="44" width="8" height="8" rx="1.5" fill="#e6edf3"/>
  <rect x="250" y="44" width="8" height="8" rx="1.5" fill="#e6edf3"/>
  <rect x="300" y="44" width="8" height="8" rx="1.5" fill="#e6edf3"/>
  <rect x="310" y="44" width="8" height="8" rx="1.5" fill="#e6edf3"/>
  <rect x="320" y="44" width="8" height="8" rx="1.5" fill="#e6edf3"/>
  <rect x="350" y="44" width="8" height="8" rx="1.5" fill="#e6edf3"/>
  <rect x="360" y="44" width="8" height="8" rx="1.5" fill="#e6edf3"/>
  <rect x="370" y="44" width="8" height="8" rx="1.5" fill="#e6edf3"/>
  <rect x="380" y="44" width="8" height="8" rx="1.5" fill="#e6edf3"/>
  <rect x="390" y="44" width="8" height="8" rx="1.5" fill="#e6edf3"/>
  <rect x="400" y="44" width="8" height="8" rx="1.5" fill="#e6edf3"/>
  <rect x="450" y="44" width="8" height="8" rx="1.5" fill="#e6edf3"/>
  <rect x="460" y="44" width="8" height="8" rx="1.5" fill="#e6edf3"/>
  <rect x="470" y="44" width="8" height="8" rx="1.5" fill="#e6edf3"/>
  <rect x="480" y="44" width="8" height="8" rx="1.5" fill="#e6edf3"/>
  <rect x="490" y="44" width="8" height="8" rx="1.5" fill="#e6edf3"/>
  <rect x="530" y="44" width="8" height="8" rx="1.5" fill="#e6edf3"/>
  <rect x="540" y="44" width="8" height="8" rx="1.5" fill="#e6edf3"/>
  <rect x="590" y="44" width="8" height="8" rx="1.5" fill="#e6edf3"/>
  <rect x="600" y="44" width="8" height="8" rx="1.5" fill="#e6edf3"/>
  <rect x="630" y="44" width="8" height="8" rx="1.5" fill="#e6edf3"/>
  <rect x="640" y="44" width="8" height="8" rx="1.5" fill="#e6edf3"/>
  <rect x="690" y="44" width="8" height="8" rx="1.5" fill="#e6edf3"/>
  <rect x="700" y="44" width="8" height="8" rx="1.5" fill="#e6edf3"/>
  <rect x="30" y="56" width="8" height="8" rx="1.5" fill="#e6edf3"/>
  <rect x="40" y="56" width="8" height="8" rx="1.5" fill="#e6edf3"/>
  <rect x="130" y="56" width="8" height="8" rx="1.5" fill="#e6edf3"/>
  <rect x="140" y="56" width="8" height="8" rx="1.5" fill="#e6edf3"/>
  <rect x="190" y="56" width="8" height="8" rx="1.5" fill="#e6edf3"/>
  <rect x="200" y="56" width="8" height="8" rx="1.5" fill="#e6edf3"/>
  <rect x="230" y="56" width="8" height="8" rx="1.5" fill="#e6edf3"/>
  <rect x="240" y="56" width="8" height="8" rx="1.5" fill="#e6edf3"/>
  <rect x="250" y="56" width="8" height="8" rx="1.5" fill="#e6edf3"/>
  <rect x="260" y="56" width="8" height="8" rx="1.5" fill="#e6edf3"/>
  <rect x="290" y="56" width="8" height="8" rx="1.5" fill="#e6edf3"/>
  <rect x="300" y="56" width="8" height="8" rx="1.5" fill="#e6edf3"/>
  <rect x="310" y="56" width="8" height="8" rx="1.5" fill="#e6edf3"/>
  <rect x="320" y="56" width="8" height="8" rx="1.5" fill="#e6edf3"/>
  <rect x="350" y="56" width="8" height="8" rx="1.5" fill="#e6edf3"/>
  <rect x="360" y="56" width="8" height="8" rx="1.5" fill="#e6edf3"/>
  <rect x="400" y="56" width="8" height="8" rx="1.5" fill="#e6edf3"/>
  <rect x="410" y="56" width="8" height="8" rx="1.5" fill="#e6edf3"/>
  <rect x="440" y="56" width="8" height="8" rx="1.5" fill="#e6edf3"/>
  <rect x="450" y="56" width="8" height="8" rx="1.5" fill="#e6edf3"/>
  <rect x="490" y="56" width="8" height="8" rx="1.5" fill="#e6edf3"/>
  <rect x="500" y="56" width="8" height="8" rx="1.5" fill="#e6edf3"/>
  <rect x="530" y="56" width="8" height="8" rx="1.5" fill="#e6edf3"/>
  <rect x="540" y="56" width="8" height="8" rx="1.5" fill="#e6edf3"/>
  <rect x="550" y="56" width="8" height="8" rx="1.5" fill="#e6edf3"/>
  <rect x="590" y="56" width="8" height="8" rx="1.5" fill="#e6edf3"/>
  <rect x="600" y="56" width="8" height="8" rx="1.5" fill="#e6edf3"/>
  <rect x="640" y="56" width="8" height="8" rx="1.5" fill="#e6edf3"/>
  <rect x="650" y="56" width="8" height="8" rx="1.5" fill="#e6edf3"/>
  <rect x="680" y="56" width="8" height="8" rx="1.5" fill="#e6edf3"/>
  <rect x="690" y="56" width="8" height="8" rx="1.5" fill="#e6edf3"/>
  <rect x="30" y="68" width="8" height="8" rx="1.5" fill="#e6edf3"/>
  <rect x="40" y="68" width="8" height="8" rx="1.5" fill="#e6edf3"/>
  <rect x="130" y="68" width="8" height="8" rx="1.5" fill="#e6edf3"/>
  <rect x="140" y="68" width="8" height="8" rx="1.5" fill="#e6edf3"/>
  <rect x="190" y="68" width="8" height="8" rx="1.5" fill="#e6edf3"/>
  <rect x="200" y="68" width="8" height="8" rx="1.5" fill="#e6edf3"/>
  <rect x="230" y="68" width="8" height="8" rx="1.5" fill="#e6edf3"/>
  <rect x="240" y="68" width="8" height="8" rx="1.5" fill="#e6edf3"/>
  <rect x="260" y="68" width="8" height="8" rx="1.5" fill="#e6edf3"/>
  <rect x="270" y="68" width="8" height="8" rx="1.5" fill="#e6edf3"/>
  <rect x="280" y="68" width="8" height="8" rx="1.5" fill="#e6edf3"/>
  <rect x="290" y="68" width="8" height="8" rx="1.5" fill="#e6edf3"/>
  <rect x="310" y="68" width="8" height="8" rx="1.5" fill="#e6edf3"/>
  <rect x="320" y="68" width="8" height="8" rx="1.5" fill="#e6edf3"/>
  <rect x="350" y="68" width="8" height="8" rx="1.5" fill="#e6edf3"/>
  <rect x="360" y="68" width="8" height="8" rx="1.5" fill="#e6edf3"/>
  <rect x="370" y="68" width="8" height="8" rx="1.5" fill="#e6edf3"/>
  <rect x="380" y="68" width="8" height="8" rx="1.5" fill="#e6edf3"/>
  <rect x="390" y="68" width="8" height="8" rx="1.5" fill="#e6edf3"/>
  <rect x="400" y="68" width="8" height="8" rx="1.5" fill="#e6edf3"/>
  <rect x="440" y="68" width="8" height="8" rx="1.5" fill="#e6edf3"/>
  <rect x="450" y="68" width="8" height="8" rx="1.5" fill="#e6edf3"/>
  <rect x="460" y="68" width="8" height="8" rx="1.5" fill="#e6edf3"/>
  <rect x="470" y="68" width="8" height="8" rx="1.5" fill="#e6edf3"/>
  <rect x="480" y="68" width="8" height="8" rx="1.5" fill="#e6edf3"/>
  <rect x="490" y="68" width="8" height="8" rx="1.5" fill="#e6edf3"/>
  <rect x="500" y="68" width="8" height="8" rx="1.5" fill="#e6edf3"/>
  <rect x="530" y="68" width="8" height="8" rx="1.5" fill="#e6edf3"/>
  <rect x="540" y="68" width="8" height="8" rx="1.5" fill="#e6edf3"/>
  <rect x="560" y="68" width="8" height="8" rx="1.5" fill="#e6edf3"/>
  <rect x="570" y="68" width="8" height="8" rx="1.5" fill="#e6edf3"/>
  <rect x="590" y="68" width="8" height="8" rx="1.5" fill="#e6edf3"/>
  <rect x="600" y="68" width="8" height="8" rx="1.5" fill="#e6edf3"/>
  <rect x="650" y="68" width="8" height="8" rx="1.5" fill="#e6edf3"/>
  <rect x="660" y="68" width="8" height="8" rx="1.5" fill="#e6edf3"/>
  <rect x="670" y="68" width="8" height="8" rx="1.5" fill="#e6edf3"/>
  <rect x="680" y="68" width="8" height="8" rx="1.5" fill="#e6edf3"/>
  <rect x="30" y="80" width="8" height="8" rx="1.5" fill="#e6edf3"/>
  <rect x="40" y="80" width="8" height="8" rx="1.5" fill="#e6edf3"/>
  <rect x="130" y="80" width="8" height="8" rx="1.5" fill="#e6edf3"/>
  <rect x="140" y="80" width="8" height="8" rx="1.5" fill="#e6edf3"/>
  <rect x="190" y="80" width="8" height="8" rx="1.5" fill="#e6edf3"/>
  <rect x="200" y="80" width="8" height="8" rx="1.5" fill="#e6edf3"/>
  <rect x="230" y="80" width="8" height="8" rx="1.5" fill="#e6edf3"/>
  <rect x="240" y="80" width="8" height="8" rx="1.5" fill="#e6edf3"/>
  <rect x="270" y="80" width="8" height="8" rx="1.5" fill="#e6edf3"/>
  <rect x="280" y="80" width="8" height="8" rx="1.5" fill="#e6edf3"/>
  <rect x="310" y="80" width="8" height="8" rx="1.5" fill="#e6edf3"/>
  <rect x="320" y="80" width="8" height="8" rx="1.5" fill="#e6edf3"/>
  <rect x="350" y="80" width="8" height="8" rx="1.5" fill="#e6edf3"/>
  <rect x="360" y="80" width="8" height="8" rx="1.5" fill="#e6edf3"/>
  <rect x="440" y="80" width="8" height="8" rx="1.5" fill="#e6edf3"/>
  <rect x="450" y="80" width="8" height="8" rx="1.5" fill="#e6edf3"/>
  <rect x="490" y="80" width="8" height="8" rx="1.5" fill="#e6edf3"/>
  <rect x="500" y="80" width="8" height="8" rx="1.5" fill="#e6edf3"/>
  <rect x="530" y="80" width="8" height="8" rx="1.5" fill="#e6edf3"/>
  <rect x="540" y="80" width="8" height="8" rx="1.5" fill="#e6edf3"/>
  <rect x="580" y="80" width="8" height="8" rx="1.5" fill="#e6edf3"/>
  <rect x="590" y="80" width="8" height="8" rx="1.5" fill="#e6edf3"/>
  <rect x="600" y="80" width="8" height="8" rx="1.5" fill="#e6edf3"/>
  <rect x="660" y="80" width="8" height="8" rx="1.5" fill="#e6edf3"/>
  <rect x="670" y="80" width="8" height="8" rx="1.5" fill="#e6edf3"/>
  <rect x="40" y="92" width="8" height="8" rx="1.5" fill="#e6edf3"/>
  <rect x="50" y="92" width="8" height="8" rx="1.5" fill="#e6edf3"/>
  <rect x="60" y="92" width="8" height="8" rx="1.5" fill="#e6edf3"/>
  <rect x="70" y="92" width="8" height="8" rx="1.5" fill="#e6edf3"/>
  <rect x="80" y="92" width="8" height="8" rx="1.5" fill="#e6edf3"/>
  <rect x="90" y="92" width="8" height="8" rx="1.5" fill="#e6edf3"/>
  <rect x="140" y="92" width="8" height="8" rx="1.5" fill="#e6edf3"/>
  <rect x="150" y="92" width="8" height="8" rx="1.5" fill="#e6edf3"/>
  <rect x="160" y="92" width="8" height="8" rx="1.5" fill="#e6edf3"/>
  <rect x="170" y="92" width="8" height="8" rx="1.5" fill="#e6edf3"/>
  <rect x="180" y="92" width="8" height="8" rx="1.5" fill="#e6edf3"/>
  <rect x="190" y="92" width="8" height="8" rx="1.5" fill="#e6edf3"/>
  <rect x="230" y="92" width="8" height="8" rx="1.5" fill="#e6edf3"/>
  <rect x="240" y="92" width="8" height="8" rx="1.5" fill="#e6edf3"/>
  <rect x="310" y="92" width="8" height="8" rx="1.5" fill="#e6edf3"/>
  <rect x="320" y="92" width="8" height="8" rx="1.5" fill="#e6edf3"/>
  <rect x="350" y="92" width="8" height="8" rx="1.5" fill="#e6edf3"/>
  <rect x="360" y="92" width="8" height="8" rx="1.5" fill="#e6edf3"/>
  <rect x="440" y="92" width="8" height="8" rx="1.5" fill="#e6edf3"/>
  <rect x="450" y="92" width="8" height="8" rx="1.5" fill="#e6edf3"/>
  <rect x="490" y="92" width="8" height="8" rx="1.5" fill="#e6edf3"/>
  <rect x="500" y="92" width="8" height="8" rx="1.5" fill="#e6edf3"/>
  <rect x="530" y="92" width="8" height="8" rx="1.5" fill="#e6edf3"/>
  <rect x="540" y="92" width="8" height="8" rx="1.5" fill="#e6edf3"/>
  <rect x="590" y="92" width="8" height="8" rx="1.5" fill="#e6edf3"/>
  <rect x="600" y="92" width="8" height="8" rx="1.5" fill="#e6edf3"/>
  <rect x="660" y="92" width="8" height="8" rx="1.5" fill="#e6edf3"/>
  <rect x="670" y="92" width="8" height="8" rx="1.5" fill="#e6edf3"/>
  <rect x="30" y="110" width="680" height="4" rx="1" fill="#e6edf3"/>
</svg>