<svg xmlns="http://www.w3.org/2000/svg" viewBox="0 0 740 152" fill="none">
  <rect width="740" height="152" rx="8" fill="#0d1117"/>
    <rect x="30" y="30" width="680" height="3" rx="1" fill="#e6edf3"/>
  <rect x="30" y="35" width="680" height="3" rx="1" fill="#e6edf3"/>
  <rect x="40" y="48" width="8" height="8" rx="1.5" fill="#e6edf3"/>
  <rect x="50" y="48" width="8" height="8" rx="1.5" fill="#e6edf3"/>
  <rect x="60" y="48" width="8" height="8" rx="1.5" fill="#e6edf3"/>
  <rect x="70" y="48" width="8" height="8" rx="1.5" fill="#e6edf3"/>
  <rect x="80" y="48" width="8" height="8" rx="1.5" fill="#e6edf3"/>
  <rect x="90" y="48" width="8" height="8" rx="1.5" fill="#e6edf3"/>
  <rect x="140" y="48" width="8" height="8" rx="1.5" fill="#e6edf3"/>
  <rect x="150" y="48" width="8" height="8" rx="1.5" fill="#e6edf3"/>
  <rect x="160" y="48" width="8" height="8" rx="1.5" fill="#e6edf3"/>
  <rect x="170" y="48" width="8" height="8" rx="1.5" fill="#e6edf3"/>
  <rect x="180" y="48" width="8" height="8" rx="1.5" fill="#e6edf3"/>
  <rect x="190" y="48" width="8" height="8" rx="1.5" fill="#e6edf3"/>
  <rect x="230" y="48" width="8" height="8" rx="1.5" fill="#e6edf3"/>
  <rect x="240" y="48" width="8" height="8" rx="1.5" fill="#e6edf3"/>
  <rect x="250" y="48" width="8" height="8" rx="1.5" fill="#e6edf3"/>
  <rect x="300" y="48" width="8" height="8" rx="1.5" fill="#e6edf3"/>
  <rect x="310" y="48" width="8" height="8" rx="1.5" fill="#e6edf3"/>
  <rect x="320" y="48" width="8" height="8" rx="1.5" fill="#e6edf3"/>
  <rect x="350" y="48" width="8" height="8" rx="1.5" fill="#e6edf3"/>
  <rect x="360" y="48" width="8" height="8" rx="1.5" fill="#e6edf3"/>
  <rect x="370" y="48" width="8" height="8" rx="1.5" fill="#e6edf3"/>
  <rect x="380" y="48" width="8" height="8" rx="1.5" fill="#e6edf3"/>
  <rect x="390" y="48" width="8" height="8" rx="1.5" fill="#e6edf3"/>
  <rect x="400" y="48" width="8" height="8" rx="1.5" fill="#e6edf3"/>
  <rect x="450" y="48" width="8" height="8" rx="1.5" fill="#e6edf3"/>
  <rect x="460" y="48" width="8" height="8" rx="1.5" fill="#e6edf3"/>
  <rect x="470" y="48" width="8" height="8" rx="1.5" fill="#e6edf3"/>
  <rect x="480" y="48" width="8" height="8" rx="1.5" fill="#e6edf3"/>
  <rect x="490" y="48" width="8" height="8" rx="1.5" fill="#e6edf3"/>
  <rect x="530" y="48" width="8" height="8" rx="1.5" fill="#e6edf3"/>
  <rect x="540" y="48" width="8" height="8" rx="1.5" fill="#e6edf3"/>
  <rect x="590" y="48" width="8" height="8" rx="1.5" fill="#e6edf3"/>
  <rect x="600" y="48" width="8" height="8" rx="1.5" fill="#e6edf3"/>
  <rect x="630" y="48" width="8" height="8" rx="1.5" fill="#e6edf3"/>
  <rect x="640" y="48" width="8" height="8" rx="1.5" fill="#e6edf3"/>
  <rect x="690" y="48" width="8" height="8" rx="1.5" fill="#e6edf3"/>
  <rect x="700" y="48" width="8" height="8" rx="1.5" fill="#e6edf3"/>
  <rect x="30" y="60" width="8" height="8" rx="1.5" fill="#e6edf3"/>
  <rect x="40" y="60" width="8" height="8" rx="1.5" fill="#e6edf3"/>
  <rect x="130" y="60" width="8" height="8" rx="1.5" fill="#e6edf3"/>
  <rect x="140" y="60" width="8" height="8" rx="1.5" fill="#e6edf3"/>
  <rect x="190" y="60" width="8" height="8" rx="1.5" fill="#e6edf3"/>
  <rect x="200" y="60" width="8" height="8" rx="1.5" fill="#e6edf3"/>
  <rect x="230" y="60" width="8" height="8" rx="1.5" fill="#e6edf3"/>
  <rect x="240" y="60" width="8" height="8" rx="1.5" fill="#e6edf3"/>
  <rect x="250" y="60" width="8" height="8" rx="1.5" fill="#e6edf3"/>
  <rect x="260" y="60" width="8" height="8" rx="1.5" fill="#e6edf3"/>
  <rect x="290" y="60" width="8" height="8" rx="1.5" fill="#e6edf3"/>
  <rect x="300" y="60" width="8" height="8" rx="1.5" fill="#e6edf3"/>
  <rect x="310" y="60" width="8" height="8" rx="1.5" fill="#e6edf3"/>
  <rect x="320" y="60" width="8" height="8" rx="1.5" fill="#e6edf3"/>
  <rect x="350" y="60" width="8" height="8" rx="1.5" fill="#e6edf3"/>
  <rect x="360" y="60" width="8" height="8" rx="1.5" fill="#e6edf3"/>
  <rect x="400" y="60" width="8" height="8" rx="1.5" fill="#e6edf3"/>
  <rect x="410" y="60" width="8" height="8" rx="1.5" fill="#e6edf3"/>
  <rect x="440" y="60" width="8" height="8" rx="1.5" fill="#e6edf3"/>
  <rect x="450" y="60" width="8" height="8" rx="1.5" fill="#e6edf3"/>
  <rect x="490" y="60" width="8" height="8" rx="1.5" fill="#e6edf3"/>
  <rect x="500" y="60" width="8" height="8" rx="1.5" fill="#e6edf3"/>
  <rect x="530" y="60" width="8" height="8" rx="1.5" fill="#e6edf3"/>
  <rect x="540" y="60" width="8" height="8" rx="1.5" fill="#e6edf3"/>
  <rect x="550" y="60" width="8" height="8" rx="1.5" fill="#e6edf3"/>
  <rect x="590" y="60" width="8" height="8" rx="1.5" fill="#e6edf3"/>
  <rect x="600" y="60" width="8" height="8" rx="1.5" fill="#e6edf3"/>
  <rect x="640" y="60" width="8" height="8" rx="1.5" fill="#e6edf3"/>
  <rect x="650" y="60" width="8" height="8" rx="1.5" fill="#e6edf3"/>
  <rect x="680" y="60" width="8" height="8" rx="1.5" fill="#e6edf3"/>
  <rect x="690" y="60" width="8" height="8" rx="1.5" fill="#e6edf3"/>
  <rect x="30" y="72" width="8" height="8" rx="1.5" fill="#e6edf3"/>
  <rect x="40" y="72" width="8" height="8" rx="1.5" fill="#e6edf3"/>
  <rect x="130" y="72" width="8" height="8" rx="1.5" fill="#e6edf3"/>
  <rect x="140" y="72" width="8" height="8" rx="1.5" fill="#e6edf3"/>
  <rect x="190" y="72" width="8" height="8" rx="1.5" fill="#e6edf3"/>
  <rect x="200" y="72" width="8" height="8" rx="1.5" fill="#e6edf3"/>
  <rect x="230" y="72" width="8" height="8" rx="1.5" fill="#e6edf3"/>
  <rect x="240" y="72" width="8" height="8" rx="1.5" fill="#e6edf3"/>
  <rect x="260" y="72" width="8" height="8" rx="1.5" fill="#e6edf3"/>
  <rect x="270" y="72" width="8" height="8" rx="1.5" fill="#e6edf3"/>
  <rect x="280" y="72" width="8" height="8" rx="1.5" fill="#e6edf3"/>
  <rect x="290" y="72" width="8" height="8" rx="1.5" fill="#e6edf3"/>
  <rect x="310" y="72" width="8" height="8" rx="1.5" fill="#e6edf3"/>
  <rect x="320" y="72" width="8" height="8" rx="1.5" fill="#e6edf3"/>
  <rect x="350" y="72" width="8" height="8" rx="1.5" fill="#e6edf3"/>
  <rect x="360" y="72" width="8" height="8" rx="1.5" fill="#e6edf3"/>
  <rect x="370" y="72" width="8" height="8" rx="1.5" fill="#e6edf3"/>
  <rect x="380" y="72" width="8" height="8" rx="1.5" fill="#e6edf3"/>
  <rect x="390" y="72" width="8" height="8" rx="1.5" fill="#e6edf3"/>
  <rect x="400" y="72" width="8" height="8" rx="1.5" fill="#e6edf3"/>
  <rect x="440" y="72" width="8" height="8" rx="1.5" fill="#e6edf3"/>
  <rect x="450" y="72" width="8" height="8" rx="1.5" fill="#e6edf3"/>
  <rect x="460" y="72" width="8" height="8" rx="1.5" fill="#e6edf3"/>
  <rect x="470" y="72" width="8" height="8" rx="1.5" fill="#e6edf3"/>
  <rect x="480" y="72" width="8" height="8" rx="1.5" fill="#e6edf3"/>
  <rect x="490" y="72" width="8" height="8" rx="1.5" fill="#e6edf3"/>
  <rect x="500" y="72" width="8" height="8" rx="1.5" fill="#e6edf3"/>
  <rect x="530" y="72" width="8" height="8" rx="1.5" fill="#e6edf3"/>
  <rect x="540" y="72" width="8" height="8" rx="1.5" fill="#e6edf3"/>
  <rect x="560" y="72" width="8" height="8" rx="1.5" fill="#e6edf3"/>
  <rect x="570" y="72" width="8" height="8" rx="1.5" fill="#e6edf3"/>
  <rect x="590" y="72" width="8" height="8" rx="1.5" fill="#e6edf3"/>
  <rect x="600" y="72" width="8" height="8" rx="1.5" fill="#e6edf3"/>
  <rect x="650" y="72" width="8" height="8" rx="1.5" fill="#e6edf3"/>
  <rect x="660" y="72" width="8" height="8" rx="1.5" fill="#e6edf3"/>
  <rect x="670" y="72" width="8" height="8" rx="1.5" fill="#e6edf3"/>
  <rect x="680" y="72" width="8" height="8" rx="1.5" fill="#e6edf3"/>
  <rect x="30" y="84" width="8" height="8" rx="1.5" fill="#e6edf3"/>
  <rect x="40" y="84" width="8" height="8" rx="1.5" fill="#e6edf3"/>
  <rect x="130" y="84" width="8" height="8" rx="1.5" fill="#e6edf3"/>
  <rect x="140" y="84" width="8" height="8" rx="1.5" fill="#e6edf3"/>
  <rect x="190" y="84" width="8" height="8" rx="1.5" fill="#e6edf3"/>
  <rect x="200" y="84" width="8" height="8" rx="1.5" fill="#e6edf3"/>
  <rect x="230" y="84" width="8" height="8" rx="1.5" fill="#e6edf3"/>
  <rect x="240" y="84" width="8" height="8" rx="1.5" fill="#e6edf3"/>
  <rect x="270" y="84" width="8" height="8" rx="1.5" fill="#e6edf3"/>
  <rect x="280" y="84" width="8" height="8" rx="1.5" fill="#e6edf3"/>
  <rect x="310" y="84" width="8" height="8" rx="1.5" fill="#e6edf3"/>
  <rect x="320" y="84" width="8" height="8" rx="1.5" fill="#e6edf3"/>
  <rect x="350" y="84" width="8" height="8" rx="1.5" fill="#e6edf3"/>
  <rect x="360" y="84" width="8" height="8" rx="1.5" fill="#e6edf3"/>
  <rect x="440" y="84" width="8" height="8" rx="1.5" fill="#e6edf3"/>
  <rect x="450" y="84" width="8" height="8" rx="1.5" fill="#e6edf3"/>
  <rect x="490" y="84" width="8" height="8" rx="1.5" fill="#e6edf3"/>
  <rect x="500" y="84" width="8" height="8" rx="1.5" fill="#e6edf3"/>
  <rect x="530" y="84" width="8" height="8" rx="1.5" fill="#e6edf3"/>
  <rect x="540" y="84" width="8" height="8" rx="1.5" fill="#e6edf3"/>
  <rect x="580" y="84" width="8" height="8" rx="1.5" fill="#e6edf3"/>
  <rect x="590" y="84" width="8" height="8" rx="1.5" fill="#e6edf3"/>
  <rect x="600" y="84" width="8" height="8" rx="1.5" fill="#e6edf3"/>
  <rect x="660" y="84" width="8" height="8" rx="1.5" fill="#e6edf3"/>
  <rect x="670" y="84" width="8" height="8" rx="1.5" fill="#e6edf3"/>
  <rect x="40" y="96" width="8" height="8" rx="1.5" fill="#e6edf3"/>
  <rect x="50" y="96" width="8" height="8" rx="1.5" fill="#e6edf3"/>
  <rect x="60" y="96" width="8" height="8" rx="1.5" fill="#e6edf3"/>
  <rect x="70" y="96" width="8" height="8" rx="1.5" fill="#e6edf3"/>
  <rect x="80" y="96" width="8" height="8" rx="1.5" fill="#e6edf3"/>
  <rect x="90" y="96" width="8" height="8" rx="1.5" fill="#e6edf3"/>
  <rect x="140" y="96" width="8" height="8" rx="1.5" fill="#e6edf3"/>
  <rect x="150" y="96" width="8" height="8" rx="1.5" fill="#e6edf3"/>
  <rect x="160" y="96" width="8" height="8" rx="1.5" fill="#e6edf3"/>
  <rect x="170" y="96" width="8" height="8" rx="1.5" fill="#e6edf3"/>
  <rect x="180" y="96" width="8" height="8" rx="1.5" fill="#e6edf3"/>
  <rect x="190" y="96" width="8" height="8" rx="1.5" fill="#e6edf3"/>
  <rect x="230" y="96" width="8" height="8" rx="1.5" fill="#e6edf3"/>
  <rect x="240" y="96" width="8" height="8" rx="1.5" fill="#e6edf3"/>
  <rect x="310" y="96" width="8" height="8" rx="1.5" fill="#e6edf3"/>
  <rect x="320" y="96" width="8" height="8" rx="1.5" fill="#e6edf3"/>
  <rect x="350" y="96" width="8" height="8" rx="1.5" fill="#e6edf3"/>
  <rect x="360" y="96" width="8" height="8" rx="1.5" fill="#e6edf3"/>
  <rect x="440" y="96" width="8" height="8" rx="1.5" fill="#e6edf3"/>
  <rect x="450" y="96" width="8" height="8" rx="1.5" fill="#e6edf3"/>
  <rect x="490" y="96" width="8" height="8" rx="1.5" fill="#e6edf3"/>
  <rect x="500" y="96" width="8" height="8" rx="1.5" fill="#e6edf3"/>
  <rect x="530" y="96" width="8" height="8" rx="1.5" fill="#e6edf3"/>
  <rect x="540" y="96" width="8" height="8" rx="1.5" fill="#e6edf3"/>
  <rect x="590" y="96" width="8" height="8" rx="1.5" fill="#e6edf3"/>
  <rect x="600" y="96" width="8" height="8" rx="1.5" fill="#e6edf3"/>
  <rect x="660" y="96" width="8" height="8" rx="1.5" fill="#e6edf3"/>
  <rect x="670" y="96" width="8" height="8" rx="1.5" fill="#e6edf3"/>
  <rect x="30" y="114" width="680" height="3" rx="1" fill="#e6edf3"/>
  <rect x="30" y="119" width="680" height="3" rx="1" fill="#e6edf3"/>
</svg>