<svg xmlns="http://www.w3.org/2000/svg" viewBox="0 0 750 124" fill="none">
  <rect width="750" height="124" rx="8" fill="#0d1117"/>
    <rect x="30" y="23" width="8" height="2" rx="0.5" fill="#e6edf3"/>
  <rect x="40" y="23" width="8" height="2" rx="0.5" fill="#e6edf3"/>
  <rect x="50" y="23" width="8" height="2" rx="0.5" fill="#e6edf3"/>
  <rect x="60" y="23" width="8" height="2" rx="0.5" fill="#e6edf3"/>
  <rect x="70" y="23" width="8" height="2" rx="0.5" fill="#e6edf3"/>
  <rect x="80" y="23" width="8" height="2" rx="0.5" fill="#e6edf3"/>
  <rect x="90" y="23" width="8" height="2" rx="0.5" fill="#e6edf3"/>
  <rect x="100" y="23" width="8" height="2" rx="0.5" fill="#e6edf3"/>
  <rect x="110" y="23" width="8" height="2" rx="0.5" fill="#e6edf3"/>
  <rect x="120" y="23" width="8" height="2" rx="0.5" fill="#e6edf3"/>
  <rect x="130" y="23" width="8" height="2" rx="0.5" fill="#e6edf3"/>
  <rect x="140" y="23" width="8" height="2" rx="0.5" fill="#e6edf3"/>
  <rect x="150" y="23" width="8" height="2" rx="0.5" fill="#e6edf3"/>
  <rect x="160" y="23" width="8" height="2" rx="0.5" fill="#e6edf3"/>
  <rect x="170" y="23" width="8" height="2" rx="0.5" fill="#e6edf3"/>
  <rect x="180" y="23" width="8" height="2" rx="0.5" fill="#e6edf3"/>
  <rect x="190" y="23" width="8" height="2" rx="0.5" fill="#e6edf3"/>
  <rect x="200" y="23" width="8" height="2" rx="0.5" fill="#e6edf3"/>
  <rect x="210" y="23" width="8" height="2" rx="0.5" fill="#e6edf3"/>
  <rect x="220" y="23" width="8" height="2" rx="0.5" fill="#e6edf3"/>
  <rect x="230" y="23" width="8" height="2" rx="0.5" fill="#e6edf3"/>
  <rect x="240" y="23" width="8" height="2" rx="0.5" fill="#e6edf3"/>
  <rect x="250" y="23" width="8" height="2" rx="0.5" fill="#e6edf3"/>
  <rect x="260" y="23" width="8" height="2" rx="0.5" fill="#e6edf3"/>
  <rect x="270" y="23" width="8" height="2" rx="0.5" fill="#e6edf3"/>
  <rect x="280" y="23" width="8" height="2" rx="0.5" fill="#e6edf3"/>
  <rect x="290" y="23" width="8" height="2" rx="0.5" fill="#e6edf3"/>
  <rect x="300" y="23" width="8" height="2" rx="0.5" fill="#e6edf3"/>
  <rect x="310" y="23" width="8" height="2" rx="0.5" fill="#e6edf3"/>
  <rect x="320" y="23" width="8" height="2" rx="0.5" fill="#e6edf3"/>
  <rect x="330" y="23" width="8" height="2" rx="0.5" fill="#e6edf3"/>
  <rect x="340" y="23" width="8" height="2" rx="0.5" fill="#e6edf3"/>
  <rect x="350" y="23" width="8" height="2" rx="0.5" fill="#e6edf3"/>
  <rect x="360" y="23" width="8" height="2" rx="0.5" fill="#e6edf3"/>
  <rect x="370" y="23" width="8" height="2" rx="0.5" fill="#e6edf3"/>
  <rect x="380" y="23" width="8" height="2" rx="0.5" fill="#e6edf3"/>
  <rect x="390" y="23" width="8" height="2" rx="0.5" fill="#e6edf3"/>
  <rect x="400" y="23" width="8" height="2" rx="0.5" fill="#e6edf3"/>
  <rect x="410" y="23" width="8" height="2" rx="0.5" fill="#e6edf3"/>
  <rect x="420" y="23" width="8" height="2" rx="0.5" fill="#e6edf3"/>
  <rect x="430" y="23" width="8" height="2" rx="0.5" fill="#e6edf3"/>
  <rect x="440" y="23" width="8" height="2" rx="0.5" fill="#e6edf3"/>
  <rect x="450" y="23" width="8" height="2" rx="0.5" fill="#e6edf3"/>
  <rect x="460" y="23" width="8" height="2" rx="0.5" fill="#e6edf3"/>
  <rect x="470" y="23" width="8" height="2" rx="0.5" fill="#e6edf3"/>
  <rect x="480" y="23" width="8" height="2" rx="0.5" fill="#e6edf3"/>
  <rect x="490" y="23" width="8" height="2" rx="0.5" fill="#e6edf3"/>
  <rect x="500" y="23" width="8" height="2" rx="0.5" fill="#e6edf3"/>
  <rect x="510" y="23" width="8" height="2" rx="0.5" fill="#e6edf3"/>
  <rect x="520" y="23" width="8" height="2" rx="0.5" fill="#e6edf3"/>
  <rect x="530" y="23" width="8" height="2" rx="0.5" fill="#e6edf3"/>
  <rect x="540" y="23" width="8" height="2" rx="0.5" fill="#e6edf3"/>
  <rect x="550" y="23" width="8" height="2" rx="0.5" fill="#e6edf3"/>
  <rect x="560" y="23" width="8" height="2" rx="0.5" fill="#e6edf3"/>
  <rect x="570" y="23" width="8" height="2" rx="0.5" fill="#e6edf3"/>
  <rect x="580" y="23" width="8" height="2" rx="0.5" fill="#e6edf3"/>
  <rect x="590" y="23" width="8" height="2" rx="0.5" fill="#e6edf3"/>
  <rect x="600" y="23" width="8" height="2" rx="0.5" fill="#e6edf3"/>
  <rect x="610" y="23" width="8" height="2" rx="0.5" fill="#e6edf3"/>
  <rect x="620" y="23" width="8" height="2" rx="0.5" fill="#e6edf3"/>
  <rect x="630" y="23" width="8" height="2" rx="0.5" fill="#e6edf3"/>
  <rect x="640" y="23" width="8" height="2" rx="0.5" fill="#e6edf3"/>
  <rect x="650" y="23" width="8" height="2" rx="0.5" fill="#e6edf3"/>
  <rect x="660" y="23" width="8" height="2" rx="0.5" fill="#e6edf3"/>
  <rect x="670" y="23" width="8" height="2" rx="0.5" fill="#e6edf3"/>
  <rect x="680" y="23" width="8" height="2" rx="0.5" fill="#e6edf3"/>
  <rect x="690" y="23" width="8" height="2" rx="0.5" fill="#e6edf3"/>
  <rect x="700" y="23" width="8" height="2" rx="0.5" fill="#e6edf3"/>
  <rect x="710" y="23" width="8" height="2" rx="0.5" fill="#e6edf3"/>
  <rect x="40" y="32" width="8" height="8" rx="1.5" fill="#e6edf3"/>
  <rect x="50" y="32" width="8" height="8" rx="1.5" fill="#e6edf3"/>
  <rect x="60" y="32" width="8" height="8" rx="1.5" fill="#e6edf3"/>
  <rect x="70" y="32" width="8" height="8" rx="1.5" fill="#e6edf3"/>
  <rect x="80" y="32" width="8" height="8" rx="1.5" fill="#e6edf3"/>
  <rect x="90" y="32" width="8" height="8" rx="1.5" fill="#e6edf3"/>
  <rect x="140" y="32" width="8" height="8" rx="1.5" fill="#e6edf3"/>
  <rect x="150" y="32" width="8" height="8" rx="1.5" fill="#e6edf3"/>
  <rect x="160" y="32" width="8" height="8" rx="1.5" fill="#e6edf3"/>
  <rect x="170" y="32" width="8" height="8" rx="1.5" fill="#e6edf3"/>
  <rect x="180" y="32" width="8" height="8" rx="1.5" fill="#e6edf3"/>
  <rect x="190" y="32" width="8" height="8" rx="1.5" fill="#e6edf3"/>
  <rect x="230" y="32" width="8" height="8" rx="1.5" fill="#e6edf3"/>
  <rect x="240" y="32" width="8" height="8" rx="1.5" fill="#e6edf3"/>
  <rect x="250" y="32" width="8" height="8" rx="1.5" fill="#e6edf3"/>
  <rect x="300" y="32" width="8" height="8" rx="1.5" fill="#e6edf3"/>
  <rect x="310" y="32" width="8" height="8" rx="1.5" fill="#e6edf3"/>
  <rect x="320" y="32" width="8" height="8" rx="1.5" fill="#e6edf3"/>
  <rect x="350" y="32" width="8" height="8" rx="1.5" fill="#e6edf3"/>
  <rect x="360" y="32" width="8" height="8" rx="1.5" fill="#e6edf3"/>
  <rect x="370" y="32" width="8" height="8" rx="1.5" fill="#e6edf3"/>
  <rect x="380" y="32" width="8" height="8" rx="1.5" fill="#e6edf3"/>
  <rect x="390" y="32" width="8" height="8" rx="1.5" fill="#e6edf3"/>
  <rect x="400" y="32" width="8" height="8" rx="1.5" fill="#e6edf3"/>
  <rect x="450" y="32" width="8" height="8" rx="1.5" fill="#e6edf3"/>
  <rect x="460" y="32" width="8" height="8" rx="1.5" fill="#e6edf3"/>
  <rect x="470" y="32" width="8" height="8" rx="1.5" fill="#e6edf3"/>
  <rect x="480" y="32" width="8" height="8" rx="1.5" fill="#e6edf3"/>
  <rect x="490" y="32" width="8" height="8" rx="1.5" fill="#e6edf3"/>
  <rect x="530" y="32" width="8" height="8" rx="1.5" fill="#e6edf3"/>
  <rect x="540" y="32" width="8" height="8" rx="1.5" fill="#e6edf3"/>
  <rect x="590" y="32" width="8" height="8" rx="1.5" fill="#e6edf3"/>
  <rect x="600" y="32" width="8" height="8" rx="1.5" fill="#e6edf3"/>
  <rect x="630" y="32" width="8" height="8" rx="1.5" fill="#e6edf3"/>
  <rect x="640" y="32" width="8" height="8" rx="1.5" fill="#e6edf3"/>
  <rect x="690" y="32" width="8" height="8" rx="1.5" fill="#e6edf3"/>
  <rect x="700" y="32" width="8" height="8" rx="1.5" fill="#e6edf3"/>
  <rect x="30" y="44" width="8" height="8" rx="1.5" fill="#e6edf3"/>
  <rect x="40" y="44" width="8" height="8" rx="1.5" fill="#e6edf3"/>
  <rect x="130" y="44" width="8" height="8" rx="1.5" fill="#e6edf3"/>
  <rect x="140" y="44" width="8" height="8" rx="1.5" fill="#e6edf3"/>
  <rect x="190" y="44" width="8" height="8" rx="1.5" fill="#e6edf3"/>
  <rect x="200" y="44" width="8" height="8" rx="1.5" fill="#e6edf3"/>
  <rect x="230" y="44" width="8" height="8" rx="1.5" fill="#e6edf3"/>
  <rect x="240" y="44" width="8" height="8" rx="1.5" fill="#e6edf3"/>
  <rect x="250" y="44" width="8" height="8" rx="1.5" fill="#e6edf3"/>
  <rect x="260" y="44" width="8" height="8" rx="1.5" fill="#e6edf3"/>
  <rect x="290" y="44" width="8" height="8" rx="1.5" fill="#e6edf3"/>
  <rect x="300" y="44" width="8" height="8" rx="1.5" fill="#e6edf3"/>
  <rect x="310" y="44" width="8" height="8" rx="1.5" fill="#e6edf3"/>
  <rect x="320" y="44" width="8" height="8" rx="1.5" fill="#e6edf3"/>
  <rect x="350" y="44" width="8" height="8" rx="1.5" fill="#e6edf3"/>
  <rect x="360" y="44" width="8" height="8" rx="1.5" fill="#e6edf3"/>
  <rect x="400" y="44" width="8" height="8" rx="1.5" fill="#e6edf3"/>
  <rect x="410" y="44" width="8" height="8" rx="1.5" fill="#e6edf3"/>
  <rect x="440" y="44" width="8" height="8" rx="1.5" fill="#e6edf3"/>
  <rect x="450" y="44" width="8" height="8" rx="1.5" fill="#e6edf3"/>
  <rect x="490" y="44" width="8" height="8" rx="1.5" fill="#e6edf3"/>
  <rect x="500" y="44" width="8" height="8" rx="1.5" fill="#e6edf3"/>
  <rect x="530" y="44" width="8" height="8" rx="1.5" fill="#e6edf3"/>
  <rect x="540" y="44" width="8" height="8" rx="1.5" fill="#e6edf3"/>
  <rect x="550" y="44" width="8" height="8" rx="1.5" fill="#e6edf3"/>
  <rect x="590" y="44" width="8" height="8" rx="1.5" fill="#e6edf3"/>
  <rect x="600" y="44" width="8" height="8" rx="1.5" fill="#e6edf3"/>
  <rect x="640" y="44" width="8" height="8" rx="1.5" fill="#e6edf3"/>
  <rect x="650" y="44" width="8" height="8" rx="1.5" fill="#e6edf3"/>
  <rect x="680" y="44" width="8" height="8" rx="1.5" fill="#e6edf3"/>
  <rect x="690" y="44" width="8" height="8" rx="1.5" fill="#e6edf3"/>
  <rect x="30" y="56" width="8" height="8" rx="1.5" fill="#e6edf3"/>
  <rect x="40" y="56" width="8" height="8" rx="1.5" fill="#e6edf3"/>
  <rect x="130" y="56" width="8" height="8" rx="1.5" fill="#e6edf3"/>
  <rect x="140" y="56" width="8" height="8" rx="1.5" fill="#e6edf3"/>
  <rect x="190" y="56" width="8" height="8" rx="1.5" fill="#e6edf3"/>
  <rect x="200" y="56" width="8" height="8" rx="1.5" fill="#e6edf3"/>
  <rect x="230" y="56" width="8" height="8" rx="1.5" fill="#e6edf3"/>
  <rect x="240" y="56" width="8" height="8" rx="1.5" fill="#e6edf3"/>
  <rect x="260" y="56" width="8" height="8" rx="1.5" fill="#e6edf3"/>
  <rect x="270" y="56" width="8" height="8" rx="1.5" fill="#e6edf3"/>
  <rect x="280" y="56" width="8" height="8" rx="1.5" fill="#e6edf3"/>
  <rect x="290" y="56" width="8" height="8" rx="1.5" fill="#e6edf3"/>
  <rect x="310" y="56" width="8" height="8" rx="1.5" fill="#e6edf3"/>
  <rect x="320" y="56" width="8" height="8" rx="1.5" fill="#e6edf3"/>
  <rect x="350" y="56" width="8" height="8" rx="1.5" fill="#e6edf3"/>
  <rect x="360" y="56" width="8" height="8" rx="1.5" fill="#e6edf3"/>
  <rect x="370" y="56" width="8" height="8" rx="1.5" fill="#e6edf3"/>
  <rect x="380" y="56" width="8" height="8" rx="1.5" fill="#e6edf3"/>
  <rect x="390" y="56" width="8" height="8" rx="1.5" fill="#e6edf3"/>
  <rect x="400" y="56" width="8" height="8" rx="1.5" fill="#e6edf3"/>
  <rect x="440" y="56" width="8" height="8" rx="1.5" fill="#e6edf3"/>
  <rect x="450" y="56" width="8" height="8" rx="1.5" fill="#e6edf3"/>
  <rect x="460" y="56" width="8" height="8" rx="1.5" fill="#e6edf3"/>
  <rect x="470" y="56" width="8" height="8" rx="1.5" fill="#e6edf3"/>
  <rect x="480" y="56" width="8" height="8" rx="1.5" fill="#e6edf3"/>
  <rect x="490" y="56" width="8" height="8" rx="1.5" fill="#e6edf3"/>
  <rect x="500" y="56" width="8" height="8" rx="1.5" fill="#e6edf3"/>
  <rect x="530" y="56" width="8" height="8" rx="1.5" fill="#e6edf3"/>
  <rect x="540" y="56" width="8" height="8" rx="1.5" fill="#e6edf3"/>
  <rect x="560" y="56" width="8" height="8" rx="1.5" fill="#e6edf3"/>
  <rect x="570" y="56" width="8" height="8" rx="1.5" fill="#e6edf3"/>
  <rect x="590" y="56" width="8" height="8" rx="1.5" fill="#e6edf3"/>
  <rect x="600" y="56" width="8" height="8" rx="1.5" fill="#e6edf3"/>
  <rect x="650" y="56" width="8" height="8" rx="1.5" fill="#e6edf3"/>
  <rect x="660" y="56" width="8" height="8" rx="1.5" fill="#e6edf3"/>
  <rect x="670" y="56" width="8" height="8" rx="1.5" fill="#e6edf3"/>
  <rect x="680" y="56" width="8" height="8" rx="1.5" fill="#e6edf3"/>
  <rect x="30" y="68" width="8" height="8" rx="1.5" fill="#e6edf3"/>
  <rect x="40" y="68" width="8" height="8" rx="1.5" fill="#e6edf3"/>
  <rect x="130" y="68" width="8" height="8" rx="1.5" fill="#e6edf3"/>
  <rect x="140" y="68" width="8" height="8" rx="1.5" fill="#e6edf3"/>
  <rect x="190" y="68" width="8" height="8" rx="1.5" fill="#e6edf3"/>
  <rect x="200" y="68" width="8" height="8" rx="1.5" fill="#e6edf3"/>
  <rect x="230" y="68" width="8" height="8" rx="1.5" fill="#e6edf3"/>
  <rect x="240" y="68" width="8" height="8" rx="1.5" fill="#e6edf3"/>
  <rect x="270" y="68" width="8" height="8" rx="1.5" fill="#e6edf3"/>
  <rect x="280" y="68" width="8" height="8" rx="1.5" fill="#e6edf3"/>
  <rect x="310" y="68" width="8" height="8" rx="1.5" fill="#e6edf3"/>
  <rect x="320" y="68" width="8" height="8" rx="1.5" fill="#e6edf3"/>
  <rect x="350" y="68" width="8" height="8" rx="1.5" fill="#e6edf3"/>
  <rect x="360" y="68" width="8" height="8" rx="1.5" fill="#e6edf3"/>
  <rect x="440" y="68" width="8" height="8" rx="1.5" fill="#e6edf3"/>
  <rect x="450" y="68" width="8" height="8" rx="1.5" fill="#e6edf3"/>
  <rect x="490" y="68" width="8" height="8" rx="1.5" fill="#e6edf3"/>
  <rect x="500" y="68" width="8" height="8" rx="1.5" fill="#e6edf3"/>
  <rect x="530" y="68" width="8" height="8" rx="1.5" fill="#e6edf3"/>
  <rect x="540" y="68" width="8" height="8" rx="1.5" fill="#e6edf3"/>
  <rect x="580" y="68" width="8" height="8" rx="1.5" fill="#e6edf3"/>
  <rect x="590" y="68" width="8" height="8" rx="1.5" fill="#e6edf3"/>
  <rect x="600" y="68" width="8" height="8" rx="1.5" fill="#e6edf3"/>
  <rect x="660" y="68" width="8" height="8" rx="1.5" fill="#e6edf3"/>
  <rect x="670" y="68" width="8" height="8" rx="1.5" fill="#e6edf3"/>
  <rect x="40" y="80" width="8" height="8" rx="1.5" fill="#e6edf3"/>
  <rect x="50" y="80" width="8" height="8" rx="1.5" fill="#e6edf3"/>
  <rect x="60" y="80" width="8" height="8" rx="1.5" fill="#e6edf3"/>
  <rect x="70" y="80" width="8" height="8" rx="1.5" fill="#e6edf3"/>
  <rect x="80" y="80" width="8" height="8" rx="1.5" fill="#e6edf3"/>
  <rect x="90" y="80" width="8" height="8" rx="1.5" fill="#e6edf3"/>
  <rect x="140" y="80" width="8" height="8" rx="1.5" fill="#e6edf3"/>
  <rect x="150" y="80" width="8" height="8" rx="1.5" fill="#e6edf3"/>
  <rect x="160" y="80" width="8" height="8" rx="1.5" fill="#e6edf3"/>
  <rect x="170" y="80" width="8" height="8" rx="1.5" fill="#e6edf3"/>
  <rect x="180" y="80" width="8" height="8" rx="1.5" fill="#e6edf3"/>
  <rect x="190" y="80" width="8" height="8" rx="1.5" fill="#e6edf3"/>
  <rect x="230" y="80" width="8" height="8" rx="1.5" fill="#e6edf3"/>
  <rect x="240" y="80" width="8" height="8" rx="1.5" fill="#e6edf3"/>
  <rect x="310" y="80" width="8" height="8" rx="1.5" fill="#e6edf3"/>
  <rect x="320" y="80" width="8" height="8" rx="1.5" fill="#e6edf3"/>
  <rect x="350" y="80" width="8" height="8" rx="1.5" fill="#e6edf3"/>
  <rect x="360" y="80" width="8" height="8" rx="1.5" fill="#e6edf3"/>
  <rect x="440" y="80" width="8" height="8" rx="1.5" fill="#e6edf3"/>
  <rect x="450" y="80" width="8" height="8" rx="1.5" fill="#e6edf3"/>
  <rect x="490" y="80" width="8" height="8" rx="1.5" fill="#e6edf3"/>
  <rect x="500" y="80" width="8" height="8" rx="1.5" fill="#e6edf3"/>
  <rect x="530" y="80" width="8" height="8" rx="1.5" fill="#e6edf3"/>
  <rect x="540" y="80" width="8" height="8" rx="1.5" fill="#e6edf3"/>
  <rect x="590" y="80" width="8" height="8" rx="1.5" fill="#e6edf3"/>
  <rect x="600" y="80" width="8" height="8" rx="1.5" fill="#e6edf3"/>
  <rect x="660" y="80" width="8" height="8" rx="1.5" fill="#e6edf3"/>
  <rect x="670" y="80" width="8" height="8" rx="1.5" fill="#e6edf3"/>
  <rect x="30" y="95" width="8" height="2" rx="0.5" fill="#e6edf3"/>
  <rect x="40" y="95" width="8" height="2" rx="0.5" fill="#e6edf3"/>
  <rect x="50" y="95" width="8" height="2" rx="0.5" fill="#e6edf3"/>
  <rect x="60" y="95" width="8" height="2" rx="0.5" fill="#e6edf3"/>
  <rect x="70" y="95" width="8" height="2" rx="0.5" fill="#e6edf3"/>
  <rect x="80" y="95" width="8" height="2" rx="0.5" fill="#e6edf3"/>
  <rect x="90" y="95" width="8" height="2" rx="0.5" fill="#e6edf3"/>
  <rect x="100" y="95" width="8" height="2" rx="0.5" fill="#e6edf3"/>
  <rect x="110" y="95" width="8" height="2" rx="0.5" fill="#e6edf3"/>
  <rect x="120" y="95" width="8" height="2" rx="0.5" fill="#e6edf3"/>
  <rect x="130" y="95" width="8" height="2" rx="0.5" fill="#e6edf3"/>
  <rect x="140" y="95" width="8" height="2" rx="0.5" fill="#e6edf3"/>
  <rect x="150" y="95" width="8" height="2" rx="0.5" fill="#e6edf3"/>
  <rect x="160" y="95" width="8" height="2" rx="0.5" fill="#e6edf3"/>
  <rect x="170" y="95" width="8" height="2" rx="0.5" fill="#e6edf3"/>
  <rect x="180" y="95" width="8" height="2" rx="0.5" fill="#e6edf3"/>
  <rect x="190" y="95" width="8" height="2" rx="0.5" fill="#e6edf3"/>
  <rect x="200" y="95" width="8" height="2" rx="0.5" fill="#e6edf3"/>
  <rect x="210" y="95" width="8" height="2" rx="0.5" fill="#e6edf3"/>
  <rect x="220" y="95" width="8" height="2" rx="0.5" fill="#e6edf3"/>
  <rect x="230" y="95" width="8" height="2" rx="0.5" fill="#e6edf3"/>
  <rect x="240" y="95" width="8" height="2" rx="0.5" fill="#e6edf3"/>
  <rect x="250" y="95" width="8" height="2" rx="0.5" fill="#e6edf3"/>
  <rect x="260" y="95" width="8" height="2" rx="0.5" fill="#e6edf3"/>
  <rect x="270" y="95" width="8" height="2" rx="0.5" fill="#e6edf3"/>
  <rect x="280" y="95" width="8" height="2" rx="0.5" fill="#e6edf3"/>
  <rect x="290" y="95" width="8" height="2" rx="0.5" fill="#e6edf3"/>
  <rect x="300" y="95" width="8" height="2" rx="0.5" fill="#e6edf3"/>
  <rect x="310" y="95" width="8" height="2" rx="0.5" fill="#e6edf3"/>
  <rect x="320" y="95" width="8" height="2" rx="0.5" fill="#e6edf3"/>
  <rect x="330" y="95" width="8" height="2" rx="0.5" fill="#e6edf3"/>
  <rect x="340" y="95" width="8" height="2" rx="0.5" fill="#e6edf3"/>
  <rect x="350" y="95" width="8" height="2" rx="0.5" fill="#e6edf3"/>
  <rect x="360" y="95" width="8" height="2" rx="0.5" fill="#e6edf3"/>
  <rect x="370" y="95" width="8" height="2" rx="0.5" fill="#e6edf3"/>
  <rect x="380" y="95" width="8" height="2" rx="0.5" fill="#e6edf3"/>
  <rect x="390" y="95" width="8" height="2" rx="0.5" fill="#e6edf3"/>
  <rect x="400" y="95" width="8" height="2" rx="0.5" fill="#e6edf3"/>
  <rect x="410" y="95" width="8" height="2" rx="0.5" fill="#e6edf3"/>
  <rect x="420" y="95" width="8" height="2" rx="0.5" fill="#e6edf3"/>
  <rect x="430" y="95" width="8" height="2" rx="0.5" fill="#e6edf3"/>
  <rect x="440" y="95" width="8" height="2" rx="0.5" fill="#e6edf3"/>
  <rect x="450" y="95" width="8" height="2" rx="0.5" fill="#e6edf3"/>
  <rect x="460" y="95" width="8" height="2" rx="0.5" fill="#e6edf3"/>
  <rect x="470" y="95" width="8" height="2" rx="0.5" fill="#e6edf3"/>
  <rect x="480" y="95" width="8" height="2" rx="0.5" fill="#e6edf3"/>
  <rect x="490" y="95" width="8" height="2" rx="0.5" fill="#e6edf3"/>
  <rect x="500" y="95" width="8" height="2" rx="0.5" fill="#e6edf3"/>
  <rect x="510" y="95" width="8" height="2" rx="0.5" fill="#e6edf3"/>
  <rect x="520" y="95" width="8" height="2" rx="0.5" fill="#e6edf3"/>
  <rect x="530" y="95" width="8" height="2" rx="0.5" fill="#e6edf3"/>
  <rect x="540" y="95" width="8" height="2" rx="0.5" fill="#e6edf3"/>
  <rect x="550" y="95" width="8" height="2" rx="0.5" fill="#e6edf3"/>
  <rect x="560" y="95" width="8" height="2" rx="0.5" fill="#e6edf3"/>
  <rect x="570" y="95" width="8" height="2" rx="0.5" fill="#e6edf3"/>
  <rect x="580" y="95" width="8" height="2" rx="0.5" fill="#e6edf3"/>
  <rect x="590" y="95" width="8" height="2" rx="0.5" fill="#e6edf3"/>
  <rect x="600" y="95" width="8" height="2" rx="0.5" fill="#e6edf3"/>
  <rect x="610" y="95" width="8" height="2" rx="0.5" fill="#e6edf3"/>
  <rect x="620" y="95" width="8" height="2" rx="0.5" fill="#e6edf3"/>
  <rect x="630" y="95" width="8" height="2" rx="0.5" fill="#e6edf3"/>
  <rect x="640" y="95" width="8" height="2" rx="0.5" fill="#e6edf3"/>
  <rect x="650" y="95" width="8" height="2" rx="0.5" fill="#e6edf3"/>
  <rect x="660" y="95" width="8" height="2" rx="0.5" fill="#e6edf3"/>
  <rect x="670" y="95" width="8" height="2" rx="0.5" fill="#e6edf3"/>
  <rect x="680" y="95" width="8" height="2" rx="0.5" fill="#e6edf3"/>
  <rect x="690" y="95" width="8" height="2" rx="0.5" fill="#e6edf3"/>
  <rect x="700" y="95" width="8" height="2" rx="0.5" fill="#e6edf3"/>
  <rect x="710" y="95" width="8" height="2" rx="0.5" fill="#e6edf3"/>
</svg>